<svg width="19" height="18" viewBox="0 0 19 18" fill="none" xmlns="http://www.w3.org/2000/svg">
<path d="M17.5156 0.915039C17.7197 0.915039 17.9115 0.961914 18.0908 1.05566C18.2702 1.14941 18.4279 1.28613 18.564 1.46582C18.7 1.64551 18.8052 1.84473 18.8794 2.06348C18.9536 2.28223 18.9938 2.52441 19 2.79004V15.54C19 15.7979 18.9629 16.04 18.8887 16.2666C18.8145 16.4932 18.7062 16.6924 18.564 16.8643C18.4217 17.0361 18.264 17.1689 18.0908 17.2627C17.9176 17.3564 17.7259 17.4072 17.5156 17.415H1.48438C1.28027 17.415 1.08854 17.3682 0.90918 17.2744C0.729818 17.1807 0.572103 17.0439 0.436035 16.8643C0.299967 16.6846 0.194824 16.4854 0.120605 16.2666C0.0463867 16.0479 0.0061849 15.8057 0 15.54V2.79004C0 2.53223 0.0371094 2.29004 0.111328 2.06348C0.185547 1.83691 0.293783 1.6377 0.436035 1.46582C0.578288 1.29395 0.736003 1.16113 0.90918 1.06738C1.08236 0.973633 1.27409 0.922852 1.48438 0.915039H17.5156ZM1.48438 2.41504C1.39779 2.41504 1.32666 2.4502 1.271 2.52051C1.21533 2.59082 1.1875 2.68066 1.1875 2.79004V5.41504H17.8125V2.79004C17.8125 2.68066 17.7847 2.59082 17.729 2.52051C17.6733 2.4502 17.6022 2.41504 17.5156 2.41504H1.48438ZM17.5156 15.915C17.6022 15.915 17.6733 15.8799 17.729 15.8096C17.7847 15.7393 17.8125 15.6494 17.8125 15.54V6.91504H1.1875V15.54C1.1875 15.6494 1.21533 15.7393 1.271 15.8096C1.32666 15.8799 1.39779 15.915 1.48438 15.915H17.5156ZM13.0625 11.415H15.4375V12.915H13.0625V11.415Z" fill="black" fill-opacity="0.7"/>
</svg>
