<svg width="18" height="22" viewBox="0 0 18 22" fill="none" xmlns="http://www.w3.org/2000/svg">
<path d="M5.05568 8.98538H13.1123M5.05568 17.042H13.1123M5.05568 13.0137H9.08401M1.02734 20.4661V1.53296C1.02734 1.3727 1.09101 1.21901 1.20432 1.10569C1.31764 0.992373 1.47134 0.928711 1.63159 0.928711H13.3661C13.5263 0.928852 13.6799 0.992606 13.7931 1.10596L16.9634 4.27626C17.0198 4.33255 17.0645 4.39944 17.0949 4.47307C17.1253 4.54669 17.1409 4.62561 17.1407 4.70527V20.4661C17.1407 20.5455 17.125 20.6241 17.0947 20.6974C17.0643 20.7707 17.0198 20.8373 16.9637 20.8934C16.9076 20.9495 16.841 20.994 16.7677 21.0244C16.6944 21.0547 16.6158 21.0704 16.5364 21.0704H1.63159C1.55224 21.0704 1.47367 21.0547 1.40036 21.0244C1.32705 20.994 1.26043 20.9495 1.20432 20.8934C1.14821 20.8373 1.10371 20.7707 1.07334 20.6974C1.04297 20.6241 1.02734 20.5455 1.02734 20.4661Z" stroke="black" stroke-opacity="0.7" stroke-width="1.5" stroke-linecap="round" stroke-linejoin="round"/>
<path d="M13.1133 0.928711V4.35279C13.1133 4.51305 13.1769 4.66674 13.2903 4.78006C13.4036 4.89338 13.5573 4.95704 13.7175 4.95704H17.1416" stroke="black" stroke-opacity="0.7" stroke-width="1.5" stroke-linecap="round" stroke-linejoin="round"/>
</svg>
