<svg width="18" height="21" viewBox="0 0 18 21" fill="none" xmlns="http://www.w3.org/2000/svg">
<path d="M16.639 7.65621H13.4289V5.20145C13.4289 4.0496 12.9713 2.94493 12.1569 2.13045C11.3424 1.31597 10.2377 0.858398 9.08586 0.858398C7.93401 0.858398 6.82934 1.31597 6.01486 2.13045C5.20038 2.94493 4.74281 4.0496 4.74281 5.20145V7.65621H1.53273C1.18217 7.65621 0.845968 7.79547 0.598083 8.04336C0.350198 8.29124 0.210938 8.62745 0.210938 8.97801V19.5524C0.210938 19.9029 0.350198 20.2391 0.598083 20.487C0.845968 20.7349 1.18217 20.8742 1.53273 20.8742H16.639C16.9895 20.8742 17.3258 20.7349 17.5736 20.487C17.8215 20.2391 17.9608 19.9029 17.9608 19.5524V8.97801C17.9608 8.62745 17.8215 8.29124 17.5736 8.04336C17.3258 7.79547 16.9895 7.65621 16.639 7.65621ZM5.87578 5.20145C5.87578 4.35008 6.21398 3.53358 6.81599 2.93158C7.418 2.32957 8.23449 1.99137 9.08586 1.99137C9.93723 1.99137 10.7537 2.32957 11.3557 2.93158C11.9577 3.53358 12.2959 4.35008 12.2959 5.20145V7.65621H5.87578V5.20145ZM16.8278 19.5524C16.8278 19.6025 16.8079 19.6505 16.7725 19.6859C16.7371 19.7213 16.6891 19.7412 16.639 19.7412H1.53273C1.48265 19.7412 1.43462 19.7213 1.39921 19.6859C1.3638 19.6505 1.34391 19.6025 1.34391 19.5524V8.97801C1.34391 8.92793 1.3638 8.8799 1.39921 8.84449C1.43462 8.80907 1.48265 8.78918 1.53273 8.78918H16.639C16.6891 8.78918 16.7371 8.80907 16.7725 8.84449C16.8079 8.8799 16.8278 8.92793 16.8278 8.97801V19.5524ZM10.03 14.2652C10.03 14.4519 9.97463 14.6345 9.87088 14.7897C9.76714 14.945 9.61969 15.066 9.44717 15.1375C9.27465 15.2089 9.08481 15.2276 8.90167 15.1912C8.71852 15.1548 8.55029 15.0648 8.41825 14.9328C8.28621 14.8008 8.19629 14.6325 8.15986 14.4494C8.12343 14.2662 8.14213 14.0764 8.21359 13.9039C8.28505 13.7314 8.40606 13.5839 8.56132 13.4802C8.71659 13.3764 8.89913 13.3211 9.08586 13.3211C9.33626 13.3211 9.57641 13.4205 9.75347 13.5976C9.93053 13.7746 10.03 14.0148 10.03 14.2652Z" fill="black" fill-opacity="0.7"/>
</svg>
