<svg width="21" height="21" viewBox="0 0 21 21" fill="none" xmlns="http://www.w3.org/2000/svg">
<path d="M10.25 1.5C5.14123 1.5 1 5.64123 1 10.75C1 15.8588 5.14123 20 10.25 20C15.3588 20 19.5 15.8588 19.5 10.75C19.5 5.64123 15.3588 1.5 10.25 1.5Z" stroke="#139DFF" stroke-width="1.29372" stroke-linecap="round" stroke-linejoin="round"/>
<path d="M3.10156 16.6193C3.10156 16.6193 5.16339 13.9867 10.2509 13.9867C15.3384 13.9867 17.4011 16.6193 17.4011 16.6193M10.2509 10.7492C10.9869 10.7492 11.6927 10.4569 12.2131 9.93644C12.7335 9.41603 13.0259 8.71019 13.0259 7.97422C13.0259 7.23824 12.7335 6.53241 12.2131 6.012C11.6927 5.49158 10.9869 5.19922 10.2509 5.19922C9.51491 5.19922 8.80908 5.49158 8.28867 6.012C7.76825 6.53241 7.47589 7.23824 7.47589 7.97422C7.47589 8.71019 7.76825 9.41603 8.28867 9.93644C8.80908 10.4569 9.51491 10.7492 10.2509 10.7492Z" stroke="#139DFF" stroke-width="1.29372" stroke-linecap="round" stroke-linejoin="round"/>
</svg>
