<svg aria-labelledby="google-colored" class="ui-icon ui-icon--size-xs ui-google-button__icon" viewBox="0 0 25 24" fill="none" xmlns="http://www.w3.org/2000/svg" role="presentation" aria-hidden="true"><path fill-rule="evenodd" clip-rule="evenodd" d="M21.1397 12.2041C21.1397 11.5659 21.0824 10.9524 20.9761 10.3633H12.5V13.8446H17.3434C17.1348 14.9695 16.5008 15.9227 15.5476 16.5609V18.819H18.4561C20.1579 17.2521 21.1397 14.945 21.1397 12.2041Z" fill="#4285F4"></path><path fill-rule="evenodd" clip-rule="evenodd" d="M12.4995 21.0007C14.9294 21.0007 16.9666 20.1948 18.4557 18.8203L15.5472 16.5621C14.7412 17.1022 13.7103 17.4213 12.4995 17.4213C10.1554 17.4213 8.1714 15.8382 7.46373 13.7109H4.45703V16.0427C5.93788 18.984 8.98138 21.0007 12.4995 21.0007Z" fill="#34A853"></path><path fill-rule="evenodd" clip-rule="evenodd" d="M7.46397 13.7106C7.28397 13.1706 7.18168 12.5938 7.18168 12.0006C7.18168 11.4075 7.28397 10.8307 7.46397 10.2907V7.95898H4.45727C3.84769 9.17394 3.5 10.5484 3.5 12.0006C3.5 13.4529 3.84769 14.8274 4.45727 16.0423L7.46397 13.7106Z" fill="#FBBC05"></path><path fill-rule="evenodd" clip-rule="evenodd" d="M12.4995 6.57938C13.8208 6.57938 15.0071 7.03346 15.9398 7.92523L18.5212 5.34392C16.9625 3.89177 14.9253 3 12.4995 3C8.98138 3 5.93788 5.01673 4.45703 7.95803L7.46373 10.2898C8.17141 8.16252 10.1554 6.57938 12.4995 6.57938Z" fill="#EA4335"></path></svg>