<svg width="42" height="42" viewBox="0 0 42 42" fill="none" xmlns="http://www.w3.org/2000/svg">
<path d="M29.3307 16.8353C29.3307 19.0454 28.4528 21.165 26.89 22.7278C25.3271 24.2906 23.2075 25.1686 20.9974 25.1686C18.7873 25.1686 16.6676 24.2906 15.1048 22.7278C13.542 21.165 12.6641 19.0454 12.6641 16.8353C12.6641 14.6251 13.542 12.5055 15.1048 10.9427C16.6676 9.37993 18.7873 8.50195 20.9974 8.50195C23.2075 8.50195 25.3271 9.37993 26.89 10.9427C28.4528 12.5055 29.3307 14.6251 29.3307 16.8353Z" fill="#139DFF"/>
<path fill-rule="evenodd" clip-rule="evenodd" d="M20.1474 41.818C9.03594 41.3721 0.164062 32.2221 0.164062 21.0013C0.164062 9.49505 9.49115 0.167969 20.9974 0.167969C32.5036 0.167969 41.8307 9.49505 41.8307 21.0013C41.8307 32.5076 32.5036 41.8346 20.9974 41.8346H20.712C20.5231 41.8346 20.3349 41.8291 20.1474 41.818ZM7.62865 34.1471C7.47288 33.6998 7.41986 33.2232 7.47352 32.7525C7.52719 32.2819 7.68615 31.8294 7.93862 31.4287C8.1911 31.0279 8.53059 30.6891 8.9319 30.4375C9.33321 30.1859 9.78604 30.0279 10.2568 29.9753C18.3776 29.0763 23.6672 29.1576 31.7484 29.994C32.2198 30.0431 32.6737 30.1991 33.0757 30.4501C33.4777 30.7012 33.817 31.0406 34.068 31.4427C34.3189 31.8447 34.4748 32.2987 34.5238 32.77C34.5727 33.2414 34.5135 33.7177 34.3505 34.1628C37.8142 30.6586 39.7538 25.9284 39.7474 21.0013C39.7474 10.6461 31.3526 2.2513 20.9974 2.2513C10.6422 2.2513 2.2474 10.6461 2.2474 21.0013C2.2474 26.1221 4.30052 30.7638 7.62865 34.1471Z" fill="#139DFF"/>
</svg>
